
<svg version="1.0" xmlns="http://www.w3.org/2000/svg"
 width="1371.000000pt" height="1267.000000pt" viewBox="0 0 1371.000000 1267.000000"
 preserveAspectRatio="xMidYMid meet">

<g transform="translate(0.000000,1267.000000) scale(0.100000,-0.100000)"
fill="#3D195B" stroke="none">
<path d="M5110 11754 c-41 -52 -93 -112 -116 -134 l-40 -41 -40 29 c-22 16
-77 70 -123 120 -46 50 -87 90 -91 87 -4 -3 -18 -42 -30 -87 -12 -46 -25 -87
-28 -92 -3 -6 -40 28 -83 74 -43 47 -79 83 -82 80 -2 -3 22 -77 55 -165 32
-88 74 -214 93 -279 20 -66 37 -121 38 -123 2 -1 30 4 62 12 275 63 624 65
909 4 93 -20 105 -17 106 21 0 9 31 106 68 215 69 201 98 302 90 311 -3 2 -37
-34 -77 -81 -40 -49 -73 -81 -75 -73 -3 7 -12 47 -22 88 -9 41 -20 81 -23 88
-5 8 -51 -32 -133 -116 l-127 -127 -85 100 c-82 96 -164 186 -169 184 -1 0
-36 -43 -77 -95z m150 -309 l64 -65 -129 0 -129 0 64 65 c35 36 65 65 65 65 0
0 30 -29 65 -65z m-402 -30 c28 -22 51 -43 52 -46 0 -3 -30 -11 -67 -17 -81
-14 -83 -12 -83 76 l0 64 24 -19 c13 -10 47 -36 74 -58z m772 1 c0 -70 -1 -73
-22 -70 -13 2 -45 6 -73 10 l-50 6 70 64 c39 35 71 64 73 64 1 0 2 -33 2 -74z"/>
<path d="M5046 11219 c-60 -4 -139 -13 -175 -19 -99 -17 -261 -62 -261 -72 0
-5 12 -30 26 -54 15 -25 24 -47 22 -50 -3 -2 -35 10 -72 27 -108 51 -173 26
-200 -77 -7 -27 -16 -59 -20 -71 -7 -22 -4 -21 65 12 l72 34 17 -22 c39 -51
82 -119 78 -123 -3 -2 -30 7 -61 20 l-55 25 -40 -29 c-44 -32 -91 -94 -116
-154 -9 -21 -34 -108 -55 -193 -60 -232 -97 -299 -222 -403 -32 -27 -55 -51
-51 -53 17 -11 175 -57 193 -57 27 0 24 -13 -15 -67 -18 -27 -43 -66 -54 -88
-57 -115 -89 -319 -75 -479 l8 -88 67 98 c36 55 82 114 101 132 l34 33 -23
-79 c-12 -43 -28 -116 -35 -162 -15 -103 -6 -322 16 -405 23 -88 58 -185 66
-185 3 0 26 26 49 57 42 55 44 56 52 32 6 -13 10 -71 10 -129 0 -118 -23 -223
-67 -310 -14 -29 -24 -54 -21 -57 15 -15 196 87 240 136 11 12 23 21 28 21 4
0 8 -50 8 -110 0 -200 -51 -371 -166 -559 l-27 -44 70 7 c83 8 160 28 213 54
l38 19 7 -81 c15 -183 64 -364 150 -556 58 -128 59 -136 85 -346 26 -216 42
-294 96 -472 49 -161 54 -220 24 -269 -11 -18 -22 -33 -24 -33 -49 0 -218 -25
-247 -37 -80 -32 -138 -126 -155 -253 l-6 -47 216 -6 c119 -3 290 -3 381 0
161 6 167 7 186 31 31 40 24 86 -25 171 -110 192 -147 292 -161 438 -15 147
31 339 116 490 49 86 181 227 263 281 56 36 81 39 201 18 44 -8 136 -17 205
-21 69 -3 165 -10 213 -16 107 -12 141 -4 228 52 59 39 72 43 174 55 61 7 129
13 152 14 l41 0 53 -102 c103 -203 183 -294 429 -490 80 -64 160 -129 179
-145 l34 -29 -33 -104 c-59 -190 -124 -289 -203 -308 -23 -5 -88 -18 -144 -28
-57 -9 -116 -25 -132 -35 -44 -27 -77 -83 -104 -179 l-25 -85 157 -7 c86 -4
221 -5 301 -2 l145 6 96 96 c89 90 100 106 156 222 33 69 98 179 145 245 120
172 128 186 128 236 -1 59 -23 105 -115 229 -43 58 -96 143 -119 190 -39 80
-41 90 -41 175 0 73 4 98 22 130 22 42 67 88 95 98 23 8 37 -5 121 -118 94
-125 201 -249 376 -435 172 -183 270 -341 341 -550 33 -96 31 -140 -14 -243
-38 -90 -56 -195 -42 -251 l6 -26 303 2 302 3 -3 60 c-4 97 -19 138 -78 207
-112 130 -153 255 -184 553 -20 202 -24 219 -89 363 -65 142 -71 186 -81 606
-9 391 -17 463 -68 608 l-21 57 57 21 c201 76 352 194 414 326 30 62 33 78 33
159 0 82 -3 97 -32 156 -55 111 -152 185 -313 238 -142 46 -198 52 -605 60
-316 7 -404 12 -465 26 -120 28 -180 67 -196 128 -6 25 0 34 42 75 27 26 65
55 85 66 l36 19 69 -34 c64 -31 76 -34 165 -34 95 0 97 1 150 37 30 21 105 85
168 143 74 67 140 118 185 142 l71 37 -60 18 c-129 40 -294 46 -423 17 -46
-10 -48 -10 -71 20 l-23 30 -42 -21 c-66 -33 -134 -89 -176 -145 -31 -40 -58
-61 -130 -99 -152 -80 -220 -165 -220 -275 1 -161 134 -260 409 -305 54 -9
221 -19 400 -24 374 -11 451 -25 612 -106 75 -37 104 -68 120 -126 21 -80 -17
-163 -98 -215 -116 -74 -204 -103 -275 -89 -18 3 -58 26 -88 51 -123 101 -243
146 -564 210 -379 75 -472 114 -777 316 -101 67 -278 176 -394 242 -115 66
-250 147 -300 181 -84 57 -275 229 -275 247 0 5 48 9 106 9 l107 0 -42 45
c-57 62 -103 136 -172 280 -33 68 -82 157 -108 198 l-49 74 62 -13 c33 -7 62
-11 64 -10 6 7 -20 101 -39 138 -12 23 -54 90 -94 150 -40 59 -81 131 -90 159
-17 50 -22 132 -10 169 4 13 2 20 -7 20 -17 0 -126 -19 -150 -26 -29 -9 -21
14 23 61 51 55 102 74 156 57 20 -6 39 -10 41 -7 2 2 -9 27 -24 56 -38 68 -86
100 -166 108 -35 4 -83 18 -108 30 -70 37 -148 61 -221 67 l-68 7 -80 -82
c-87 -89 -88 -89 -70 17 9 53 9 66 -2 73 -16 10 -67 9 -223 -2z m60 -371 c37
-46 73 -89 79 -96 9 -10 28 6 89 82 42 53 82 96 89 96 24 0 186 -58 227 -81
35 -20 44 -33 70 -101 16 -42 30 -84 30 -91 0 -11 -23 -13 -124 -9 -115 4
-126 3 -154 -17 -31 -22 -64 -82 -77 -139 l-7 -33 61 30 c60 31 194 73 263 84
42 6 48 -4 48 -84 0 -53 -2 -55 -132 -148 -49 -34 -88 -66 -88 -71 0 -4 17
-43 37 -85 23 -48 38 -98 41 -130 4 -49 2 -54 -23 -71 -61 -40 -173 -14 -291
67 l-46 31 80 82 c84 86 110 122 95 137 -15 15 -147 27 -238 22 l-86 -6 7 99
c8 118 -4 156 -62 200 -37 28 -40 29 -173 30 -75 1 -140 2 -145 3 -5 1 17 18
50 39 77 50 122 103 130 151 6 38 7 39 88 64 44 14 84 26 88 26 3 1 37 -36 74
-81z m-277 -309 c81 -18 101 -27 131 -57 34 -34 35 -35 12 -43 -29 -11 -178
-36 -266 -45 l-68 -7 7 44 c3 24 11 72 17 106 l10 62 31 -19 c17 -11 74 -29
126 -41z m216 -314 c125 -80 144 -127 77 -187 -79 -72 -204 -89 -284 -40 l-37
23 29 70 c36 86 110 200 124 192 6 -4 47 -30 91 -58z m214 -280 c69 -17 169
-65 197 -96 16 -17 15 -22 -11 -75 -24 -50 -146 -194 -164 -194 -4 0 -25 36
-46 80 -21 44 -42 80 -46 80 -3 0 -12 -34 -19 -75 -7 -42 -16 -77 -20 -80 -3
-2 -52 23 -108 57 -90 53 -104 66 -122 105 -18 42 -19 47 -4 72 9 14 54 52
101 84 97 64 125 69 242 42z m846 -478 c35 -106 44 -237 22 -322 -9 -33 -54
-141 -100 -240 -47 -99 -95 -210 -108 -247 -13 -38 -27 -68 -31 -68 -3 0 -15
21 -25 48 -14 37 -18 75 -18 185 l0 138 -23 -28 c-48 -57 -100 -188 -145 -363
-25 -96 -55 -200 -66 -231 -24 -64 -86 -163 -122 -196 -25 -23 -138 -93 -150
-93 -4 0 7 38 23 85 57 168 72 314 43 449 -8 38 -17 71 -19 73 -5 6 -57 -51
-100 -109 -15 -21 -55 -89 -87 -151 -70 -134 -74 -131 -74 58 0 167 18 225
121 400 88 148 155 284 189 383 22 65 23 66 33 40 24 -59 24 -123 2 -248 -12
-69 -23 -154 -23 -190 -2 -71 9 -140 22 -140 5 0 33 39 64 88 79 123 113 159
241 257 197 148 237 207 261 392 8 59 15 117 15 128 1 19 1 19 14 2 7 -9 26
-54 41 -100z m-921 -249 c-27 -52 -71 -114 -149 -207 -99 -118 -129 -168 -166
-278 -17 -52 -35 -91 -39 -86 -16 16 -50 146 -50 187 1 61 30 115 103 188 56
56 288 226 310 228 4 0 0 -15 -9 -32z m1493 -193 c97 -33 181 -78 367 -200
307 -201 391 -233 831 -315 260 -49 373 -84 468 -147 183 -122 306 -380 310
-649 2 -110 1 -112 -29 -154 -17 -24 -35 -43 -40 -42 -5 0 -39 71 -75 158 -77
189 -89 211 -144 289 -78 109 -186 196 -314 250 -35 14 -65 25 -67 23 -1 -2
10 -46 27 -98 38 -122 59 -243 59 -339 0 -113 -8 -116 -76 -31 -103 128 -134
159 -173 170 -65 18 -195 11 -329 -17 -85 -18 -159 -27 -222 -27 -85 -1 -99 2
-124 22 -78 61 -110 147 -110 299 -1 57 -3 103 -6 103 -3 0 -22 -11 -42 -25
-23 -15 -47 -45 -63 -80 -31 -62 -34 -107 -25 -346 5 -126 5 -126 -24 -168
-46 -66 -223 -230 -325 -301 -51 -36 -119 -90 -150 -122 -41 -41 -66 -58 -94
-63 -60 -11 -103 2 -135 41 -25 30 -31 33 -41 20 -21 -25 -118 -56 -177 -56
l-55 0 -20 46 c-16 35 -24 44 -37 39 -114 -47 -177 -57 -169 -27 3 9 8 40 12
67 13 100 67 176 150 211 32 14 69 17 190 15 186 -1 236 11 290 70 44 49 44
48 -67 80 -43 13 -78 26 -78 31 0 7 133 120 209 178 31 24 33 28 21 50 -7 14
-29 45 -50 70 l-37 45 35 90 c23 60 36 113 39 160 5 66 2 79 -47 210 -44 118
-53 151 -53 210 -1 125 50 241 124 279 46 23 163 15 266 -19z"/>
<path d="M1560 11039 c-77 -31 -130 -106 -130 -185 0 -48 489 -2001 1066
-4252 79 -310 144 -568 144 -573 0 -5 -420 -9 -1034 -9 -1026 0 -1033 0 -1059
-20 -28 -22 -50 -80 -40 -108 12 -36 242 -519 908 -1907 469 -978 508 -1051
655 -1208 97 -104 208 -186 343 -252 209 -103 311 -118 809 -116 l376 2 27
-83 c67 -204 152 -307 319 -388 55 -27 178 -76 271 -108 131 -47 2381 -847
2717 -967 l68 -24 207 74 c2299 819 2779 992 2836 1022 133 70 281 238 357
406 l29 65 368 5 c391 5 438 10 618 62 433 126 809 402 1056 775 211 318 300
667 269 1049 -58 712 -426 1227 -1090 1527 -63 29 -155 66 -205 83 -49 18 -91
33 -93 35 -1 2 50 212 113 467 440 1758 1084 4363 1089 4409 8 77 -6 129 -48
167 -74 68 194 63 -3298 63 l-3158 0 0 -27 c0 -28 -25 -204 -36 -255 l-6 -28
2982 0 c3272 0 3017 5 3084 -58 35 -33 76 -117 76 -155 0 -15 -263 -1080 -584
-2365 -486 -1941 -606 -2429 -606 -2457 0 -1 30 -5 68 -9 244 -25 550 -138
772 -285 102 -68 260 -217 345 -326 126 -163 213 -346 263 -559 24 -100 26
-131 27 -316 0 -229 -10 -295 -71 -480 -38 -113 -96 -230 -171 -344 -62 -93
-216 -252 -323 -332 -175 -131 -460 -253 -715 -305 -100 -20 -149 -22 -545
-28 l-435 -6 -37 -123 c-88 -293 -149 -356 -446 -457 -131 -44 -1509 -535
-2258 -804 -231 -83 -428 -151 -436 -151 -9 0 -99 30 -200 66 -100 36 -649
231 -1218 434 -1412 503 -1494 533 -1540 565 -82 57 -139 178 -186 398 l-16
77 -499 0 c-417 0 -513 3 -577 16 -160 33 -310 115 -439 242 -123 120 -185
215 -318 487 -547 1117 -927 1903 -1033 2137 -30 66 -30 67 -10 85 32 28 126
31 1141 32 889 1 938 2 933 19 -3 9 -228 906 -500 1992 -273 1086 -539 2144
-591 2350 -61 238 -96 397 -97 435 -3 88 32 147 117 201 28 18 75 19 1155 24
905 5 1134 9 1169 20 l43 13 -6 45 c-3 25 -6 87 -6 138 l0 94 -1367 -1 c-874
0 -1377 -4 -1393 -10z"/>
<path d="M5770 7050 c-103 -10 -156 -38 -238 -125 -150 -157 -222 -345 -222
-577 0 -71 6 -102 31 -175 85 -245 198 -383 393 -478 114 -56 211 -77 356 -78
111 -1 134 2 210 27 225 74 372 196 470 391 60 120 82 217 83 360 1 140 -22
239 -80 345 -102 188 -220 290 -335 290 -52 0 -53 -2 -38 -47 11 -30 12 -30
102 -36 104 -7 94 0 189 -135 49 -70 51 -76 46 -122 -3 -27 -20 -76 -36 -109
-17 -33 -31 -68 -31 -78 0 -10 15 -65 34 -123 18 -58 39 -131 46 -162 12 -55
12 -59 -15 -114 -18 -36 -61 -91 -121 -153 l-94 -96 2 75 1 74 -97 23 -97 23
-78 -60 c-136 -104 -173 -161 -157 -240 3 -17 2 -30 -3 -30 -38 0 -377 122
-398 143 0 1 -4 19 -8 40 l-8 39 49 -7 c27 -4 57 -9 67 -12 15 -4 17 5 17 95
0 54 -3 133 -6 175 l-7 75 -78 31 c-116 46 -194 64 -261 59 -32 -2 -58 0 -58
5 0 23 53 268 71 330 19 65 21 67 53 67 73 0 321 97 330 129 10 35 11 164 1
166 -5 1 -44 -1 -85 -5z m1047 -521 c6 -46 12 -105 12 -131 1 -52 -17 -148
-27 -148 -7 0 -65 178 -76 231 -11 50 38 146 68 136 6 -2 16 -41 23 -88z
m-409 -539 l72 -21 0 -48 c0 -27 -3 -63 -6 -80 -6 -29 -9 -31 -54 -31 l-47 0
-32 99 c-35 113 -35 112 -18 106 6 -2 45 -13 85 -25z"/>
<path d="M6201 6839 c-51 -10 -203 -58 -212 -68 -4 -3 -10 -92 -13 -196 l-7
-190 63 -36 c82 -47 165 -77 232 -85 46 -6 59 -3 84 15 24 17 128 139 193 226
5 7 -3 10 -25 7 -42 -5 -99 24 -146 73 -75 79 -108 94 -220 101 l-101 7 7 31
c3 17 10 35 14 39 4 5 72 11 152 14 l145 6 47 -94 c25 -52 62 -112 81 -134
l35 -40 -31 90 c-34 100 -65 158 -111 210 -28 33 -34 35 -87 34 -31 -1 -76 -5
-100 -10z"/>
<path d="M1299 5458 c42 -106 181 -402 476 -1008 98 -201 258 -534 357 -740
98 -206 190 -393 203 -416 55 -94 171 -206 281 -270 24 -14 92 -38 152 -52
l107 -27 4030 0 4030 0 155 38 c130 32 176 48 287 104 73 37 163 91 200 121
38 30 78 62 89 71 14 11 24 34 28 66 l7 50 -193 -3 c-219 -4 -211 -1 -354
-109 -39 -29 -80 -53 -91 -53 -11 0 -34 -3 -51 -6 l-31 -6 6 -59 6 -58 -74 6
c-152 11 -501 159 -635 269 l-29 23 78 1 c42 0 77 3 77 8 0 4 -11 50 -24 102
-13 52 -29 144 -36 205 -6 60 -12 110 -13 111 -1 1 -50 26 -108 56 -58 30
-133 73 -166 96 l-61 41 -43 -55 -44 -54 -7 32 c-15 66 -21 313 -9 403 16 130
70 325 90 325 4 0 20 -27 36 -60 16 -33 32 -60 35 -60 4 0 44 25 91 56 46 31
136 81 199 111 63 31 116 57 117 57 1 1 7 40 13 86 5 47 21 131 33 187 l23
101 -29 6 c-16 3 -46 6 -66 6 -35 0 -33 2 64 66 137 91 186 114 285 136 83 18
250 36 250 26 0 -3 -13 -29 -30 -59 -16 -30 -30 -59 -30 -65 0 -5 19 -19 43
-31 24 -11 88 -55 144 -97 l100 -76 115 0 c63 0 163 3 221 7 l107 6 -21 36
c-65 111 -344 281 -565 344 l-79 22 -4877 3 -4878 2 9 -22z m8122 -357 l26 -1
-4 -97 c-3 -54 -6 -104 -8 -111 -3 -8 -21 0 -55 24 -135 97 -273 98 -338 3
-45 -66 -8 -122 153 -232 187 -128 239 -189 252 -295 14 -119 -54 -225 -185
-289 l-76 -38 -141 1 c-161 1 -281 25 -279 57 0 9 1 65 2 123 l2 106 53 -53
c60 -61 120 -94 199 -110 127 -26 241 55 222 158 -10 51 -54 96 -174 175 -188
125 -234 188 -235 318 0 88 22 137 81 189 78 69 187 92 379 80 55 -4 112 -7
126 -8z m-3051 2 l62 -6 -7 -101 c-3 -56 -10 -104 -13 -108 -4 -4 -34 11 -67
33 -158 104 -296 88 -397 -46 -64 -84 -83 -157 -83 -315 0 -127 2 -138 27
-186 50 -94 119 -146 213 -158 71 -10 144 7 252 59 l94 44 -23 -40 c-36 -64
-121 -152 -176 -182 -67 -36 -182 -53 -260 -36 -78 16 -145 52 -207 110 -93
88 -135 199 -135 362 0 279 146 503 370 563 49 14 250 18 350 7z m1755 -1 c50
-7 50 -7 92 -80 22 -40 64 -133 93 -205 28 -73 55 -136 59 -140 8 -8 130 171
172 253 12 25 30 72 39 105 l17 60 118 3 c95 2 116 0 108 -10 -254 -328 -343
-470 -394 -623 -20 -61 -23 -91 -23 -230 l-1 -160 -112 -3 c-132 -3 -122 -18
-93 142 30 165 27 277 -11 390 -40 122 -123 290 -198 404 -34 51 -61 95 -61
97 0 7 136 4 195 -3z m-4580 -22 c75 -23 135 -108 135 -191 0 -14 -12 -50 -27
-80 -22 -42 -42 -64 -94 -99 -36 -25 -66 -49 -66 -55 0 -5 25 -20 55 -32 81
-33 121 -68 149 -131 21 -45 25 -64 20 -113 -10 -118 -103 -226 -228 -268 -91
-30 -189 -40 -383 -41 l-169 0 6 38 c58 380 67 479 67 771 l0 223 248 -5 c156
-3 262 -9 287 -17z m905 -280 c84 -327 131 -476 196 -624 24 -55 43 -101 41
-102 -1 -1 -47 -3 -102 -5 l-100 -4 -22 45 c-23 47 -64 165 -83 239 -11 41
-13 43 -41 37 -17 -3 -100 -9 -185 -12 -94 -5 -157 -11 -162 -18 -3 -6 -27
-72 -53 -146 l-47 -135 -105 -3 -106 -3 61 98 c69 110 316 609 370 748 19 50
41 112 48 138 l13 48 100 -3 101 -3 76 -295z m870 289 c113 -24 190 -111 190
-214 0 -101 -85 -223 -193 -278 l-48 -24 152 -199 c83 -109 178 -232 211 -271
l59 -73 -101 0 c-158 0 -152 -5 -345 265 -135 188 -195 259 -208 246 -6 -6
-12 -108 -14 -238 l-4 -228 -111 -3 -111 -3 6 58 c4 32 13 113 21 179 25 204
38 441 34 622 l-3 172 207 0 c114 0 230 -5 258 -11z m1510 -6 c0 -10 -7 -61
-15 -113 -19 -125 -42 -394 -51 -597 l-7 -163 74 -1 c145 -2 173 2 226 27 l53
25 104 207 c116 231 213 452 246 560 l22 72 98 0 99 0 15 -52 c8 -29 42 -159
76 -288 88 -339 137 -490 226 -685 6 -15 -166 -12 -194 4 -30 16 -63 87 -98
211 l-27 99 -81 -5 c-119 -7 -277 -23 -286 -29 -15 -10 -52 -99 -74 -183 l-23
-87 -64 -6 c-64 -7 -629 -12 -629 -6 0 2 11 75 25 163 36 234 47 382 48 637
l1 227 118 0 c106 0 118 -2 118 -17z m-3594 -1202 c93 -41 103 -69 58 -160
-26 -52 -110 -131 -140 -131 -23 0 -16 43 17 113 41 89 37 108 -26 128 -109
35 -102 37 -113 -34 -6 -34 -14 -83 -17 -109 l-7 -47 51 -25 c28 -15 51 -28
51 -30 0 -2 -21 -4 -47 -3 l-48 2 -3 -132 -3 -133 -47 6 c-26 3 -52 7 -58 9
-7 2 -6 35 3 111 7 60 15 183 19 274 3 91 8 171 10 179 7 23 237 9 300 -18z
m369 19 c103 -12 124 -26 132 -87 8 -61 -12 -106 -72 -161 l-53 -49 109 -143
c60 -79 109 -145 109 -146 0 -2 -29 -4 -64 -4 l-63 0 -38 58 c-49 74 -176 232
-187 232 -4 0 -8 -61 -8 -135 l0 -135 -60 0 c-70 0 -67 -11 -45 150 8 58 18
178 21 268 l7 162 61 0 c34 0 102 -5 151 -10z m675 -29 c0 -22 -3 -42 -7 -44
-5 -3 -53 3 -107 14 -55 10 -101 17 -103 15 -2 -2 -7 -42 -11 -90 l-8 -86 108
0 c90 0 108 -3 108 -15 0 -33 -60 -55 -147 -55 l-83 0 0 -62 c0 -35 -3 -87 -7
-117 l-6 -54 49 8 c27 4 84 18 127 32 44 13 81 23 83 20 2 -2 -4 -25 -13 -50
l-17 -47 -164 0 -165 0 7 38 c3 20 9 146 13 279 6 235 7 242 27 246 12 2 87 5
169 6 l147 1 0 -39z m688 24 c1 -1 -2 -42 -8 -91 -5 -49 -10 -176 -10 -281 l0
-193 -45 0 -45 0 -1 218 0 217 -49 -100 c-27 -55 -73 -149 -102 -209 -52 -108
-72 -131 -89 -105 -13 21 -84 243 -104 328 l-18 74 -19 -49 c-22 -54 -63 -114
-80 -114 -10 0 -9 19 8 238 l6 72 64 0 63 0 21 -72 c12 -40 36 -118 54 -173
47 -143 56 -142 133 22 34 70 71 151 82 179 l22 51 57 -5 c31 -2 58 -6 60 -7z
m262 3 c0 -7 -7 -58 -15 -113 -8 -55 -18 -180 -22 -277 l-6 -178 -59 0 c-32 0
-58 2 -58 3 0 2 7 48 15 103 8 54 18 180 21 279 5 113 11 183 18 187 19 13
106 9 106 -4z m457 -2 c1 -1 -2 -18 -7 -37 l-10 -36 -107 18 c-60 9 -110 15
-112 13 -3 -2 -7 -42 -9 -89 l-5 -85 107 0 106 0 -6 -27 c-4 -16 -9 -31 -11
-35 -2 -5 -49 -8 -104 -8 l-99 0 0 -115 c0 -63 3 -115 8 -115 13 0 216 48 235
55 29 12 20 -18 -15 -52 -45 -42 -64 -46 -215 -47 -112 -1 -133 1 -133 14 0 8
7 67 15 130 8 63 18 187 22 274 l6 159 166 -7 c91 -4 167 -8 168 -10z m404 -7
c42 -10 59 -40 59 -100 0 -53 -19 -87 -79 -141 l-50 -45 115 -149 c96 -124
112 -149 97 -155 -24 -8 -81 6 -112 28 -14 11 -48 50 -76 88 -56 78 -137 165
-152 165 -14 0 -23 -35 -23 -95 0 -27 -3 -74 -6 -102 l-7 -53 -48 0 c-27 0
-49 5 -49 10 0 6 7 75 16 153 9 78 17 201 18 274 l1 132 55 4 c71 5 195 -2
241 -14z m586 7 c3 -3 0 -33 -6 -68 -15 -83 -37 -426 -28 -435 4 -4 75 4 157
18 83 14 150 22 150 17 0 -4 -12 -22 -28 -39 -42 -47 -103 -59 -266 -52 -75 3
-136 9 -136 12 0 3 7 47 16 96 8 50 18 175 21 279 l6 188 55 -5 c30 -3 56 -8
59 -11z m681 -33 c2 -24 -1 -43 -5 -43 -5 0 -49 9 -99 20 -49 11 -94 20 -100
20 -5 0 -18 -30 -27 -67 -9 -38 -19 -78 -23 -90 -6 -22 -5 -22 112 -25 72 -2
118 -7 118 -13 -1 -5 -14 -19 -28 -30 -20 -15 -49 -21 -114 -25 l-87 -5 -3
-112 c-2 -103 -1 -113 15 -113 15 0 133 30 226 57 17 5 17 3 -1 -43 l-20 -49
-169 -3 -170 -2 14 77 c7 43 16 171 19 286 l7 207 166 -2 166 -3 3 -42z m392
37 c13 0 24 -26 50 -127 17 -71 56 -202 86 -292 30 -91 54 -167 54 -169 0 -3
-14 -2 -32 2 -44 9 -79 45 -113 115 -27 58 -29 60 -76 66 -26 4 -73 3 -104 0
l-56 -7 -28 -57 c-16 -31 -40 -66 -52 -78 -24 -21 -78 -47 -86 -40 -2 2 39 87
90 188 51 101 108 220 126 264 18 44 39 95 47 114 13 30 17 33 45 27 17 -3 39
-6 49 -6z m683 3 c2 -5 1 -29 -2 -55 l-6 -46 -60 24 c-34 14 -81 25 -108 25
-63 1 -110 -35 -152 -116 -26 -51 -30 -69 -30 -139 0 -143 56 -206 182 -206
71 0 65 -8 83 118 l12 82 46 0 45 0 -8 -112 c-3 -62 -10 -116 -13 -120 -11
-11 -157 -38 -205 -38 -154 0 -247 101 -247 270 0 149 91 281 215 311 40 9
243 11 248 2z m223 -55 c-3 -35 -9 -152 -13 -260 l-6 -198 105 0 105 0 11 39
c25 82 34 152 40 311 l7 165 38 3 37 3 0 -49 c0 -92 -21 -307 -36 -376 -13
-54 -24 -76 -53 -105 -86 -86 -258 -80 -325 12 -18 25 -21 43 -21 145 0 87 10
339 15 370 0 1 23 2 51 2 l52 0 -7 -62z m672 55 c128 -6 141 -13 101 -49 -23
-20 -64 -23 -165 -10 -59 8 -61 8 -67 -15 -4 -13 -7 -52 -7 -86 l0 -63 105 0
105 0 -6 -27 c-4 -16 -9 -31 -11 -35 -2 -5 -49 -8 -104 -8 l-99 0 0 -77 c0
-43 -3 -95 -7 -117 l-6 -38 53 7 c69 9 152 38 190 65 17 12 30 19 30 15 0 -3
-13 -32 -30 -64 l-29 -59 -158 -4 c-87 -3 -161 -4 -164 -2 -3 2 0 47 7 101 8
54 19 182 26 286 l12 187 51 0 c29 0 107 -3 173 -7z m-4908 -401 c0 -68 -24
-162 -41 -162 -15 0 -31 82 -24 131 7 46 36 99 56 99 5 0 9 -31 9 -68z"/>
<path d="M3226 4962 c-4 -22 -15 -111 -30 -254 -1 -16 -1 -28 0 -28 2 0 35 7
75 15 101 21 155 47 179 87 22 36 26 98 10 129 -15 27 -76 56 -135 64 -28 3
-60 8 -72 11 -17 3 -23 -2 -27 -24z"/>
<path d="M3190 4561 c-1 -9 -5 -90 -10 -181 -6 -123 -5 -167 3 -172 20 -13
121 -9 171 6 103 31 165 114 151 204 -14 91 -102 145 -252 154 -52 4 -63 2
-63 -11z"/>
<path d="M4199 4789 c-12 -24 -46 -97 -75 -161 l-52 -118 129 0 c120 0 130 1
125 18 -3 9 -15 56 -26 105 -21 92 -40 144 -64 178 -14 21 -15 20 -37 -22z"/>
<path d="M5067 4943 c-4 -22 -10 -99 -13 -172 -8 -151 -13 -144 89 -110 104
35 149 81 163 166 13 83 -50 139 -170 150 l-63 6 -6 -40z"/>
<path d="M7517 4814 c-18 -35 -137 -312 -137 -319 0 -10 177 -3 215 9 50 15
49 20 -6 188 -52 158 -53 159 -72 122z"/>
<path d="M3505 3838 c-20 -90 -25 -119 -25 -161 0 -46 1 -48 23 -42 61 19 123
77 145 136 10 24 7 27 -54 57 -77 38 -82 39 -89 10z"/>
<path d="M5920 3835 c-26 -28 -36 -94 -23 -164 l8 -43 87 58 c49 33 88 62 88
66 0 8 -119 108 -129 108 -4 0 -18 -11 -31 -25z"/>
<path d="M7661 3700 c-24 -41 -50 -85 -57 -97 -8 -12 -14 -24 -14 -26 0 -6
141 -18 149 -12 7 4 -18 155 -32 200 -2 5 -23 -24 -46 -65z"/>
<path d="M10908 4865 c-51 -19 -130 -74 -123 -86 4 -5 30 -9 58 -9 90 0 94 -3
102 -75 7 -72 -4 -106 -46 -137 -25 -19 -136 -41 -144 -29 -2 4 3 33 11 66 19
83 19 84 -28 105 -90 41 -216 11 -265 -63 -78 -114 -103 -357 -57 -544 17 -71
84 -226 102 -237 6 -3 39 25 74 64 34 39 64 66 66 60 2 -5 -13 -60 -33 -121
-20 -60 -35 -113 -32 -116 11 -10 84 59 143 134 32 42 69 88 81 102 l22 26 0
-40 c1 -52 -23 -101 -98 -204 -33 -46 -61 -87 -61 -92 0 -11 183 -127 258
-162 42 -20 82 -31 107 -31 57 1 139 36 247 104 51 33 100 64 108 69 12 8 6
22 -32 78 -71 107 -126 234 -116 265 3 7 39 -34 82 -90 65 -87 171 -191 182
-179 2 2 -10 37 -25 78 -16 40 -36 99 -45 129 l-15 55 69 -75 c57 -61 72 -72
80 -60 36 54 92 177 110 240 30 109 37 255 16 360 -22 109 -47 160 -102 209
-74 65 -173 74 -231 19 -24 -22 -24 -27 -18 -97 l7 -73 -34 7 c-67 15 -102 31
-119 55 -11 15 -27 74 -39 144 -12 66 -23 124 -27 129 -21 35 -163 48 -235 22z"/>
<path d="M12026 4608 c-3 -7 -9 -35 -16 -63 -6 -27 -34 -108 -61 -179 -27 -71
-49 -134 -49 -139 0 -6 27 -51 60 -99 38 -57 60 -100 60 -117 0 -16 3 -49 6
-75 l7 -46 53 0 c30 0 54 2 54 4 0 2 9 48 20 101 28 135 27 313 -1 443 -20 92
-24 99 -68 139 -49 45 -59 50 -65 31z"/>
</g>
</svg>
